<svg width="800" height="800" viewBox="0 0 800 800" fill="none" xmlns="http://www.w3.org/2000/svg">
<path d="M393.195 151.045C394.152 142.985 405.848 142.985 406.805 151.045L414.828 218.662C425.188 305.974 494.027 374.812 581.337 385.172L648.954 393.195C657.015 394.152 657.015 405.848 648.954 406.805L581.337 414.828C494.027 425.188 425.188 494.027 414.828 581.337L406.805 648.954C405.848 657.015 394.152 657.015 393.195 648.954L385.172 581.337C374.812 494.027 305.974 425.188 218.662 414.828L151.045 406.805C142.985 405.848 142.985 394.152 151.045 393.195L218.662 385.172C305.974 374.812 374.812 305.974 385.172 218.662L393.195 151.045Z" fill="white"/>
</svg>
