<svg width="800" height="800" viewBox="0 0 800 800" fill="none" xmlns="http://www.w3.org/2000/svg">
<g clip-path="url(#clip0_132_2)">
<path d="M427.978 95.5306L503.782 254.39C510.925 269.36 525.157 279.7 541.602 281.868L716.111 304.872C741.962 308.279 752.313 340.137 733.402 358.089L605.742 479.273C593.713 490.693 588.277 507.423 591.297 523.733L623.345 696.81C628.093 722.448 600.993 742.138 578.076 729.7L423.374 645.736C408.796 637.824 391.204 637.824 376.626 645.736L221.924 729.7C199.007 742.138 171.907 722.448 176.655 696.81L208.703 523.733C211.723 507.423 206.287 490.693 194.258 479.273L66.5976 358.089C47.6866 340.137 58.0379 308.279 83.8889 304.872L258.398 281.868C274.843 279.7 289.075 269.36 296.218 254.39L372.022 95.5306C383.251 71.9978 416.749 71.9978 427.978 95.5306Z" fill="#FFF97D" stroke="black" stroke-width="18" stroke-linejoin="round"/>
<circle cx="400" cy="452" r="19" fill="#FFC4C4" stroke="black" stroke-width="14"/>
<circle cx="447.571" cy="401.312" r="43.3125" fill="white" stroke="black" stroke-width="14"/>
<circle cx="448.654" cy="401.312" r="13.0168" fill="black" stroke="black" stroke-width="14"/>
<circle cx="352.312" cy="401.312" r="43.3125" fill="white" stroke="black" stroke-width="14"/>
<circle cx="352.313" cy="401.312" r="13.0168" fill="black" stroke="black" stroke-width="14"/>
</g>
<defs>
<clipPath id="clip0_132_2">
<rect width="800" height="800" fill="white"/>
</clipPath>
</defs>
</svg>
